<mxfile host="app.diagrams.net" modified="2020-11-29T11:15:52.970Z" agent="5.0 (Windows NT 10.0; Win64; x64) AppleWebKit/537.36 (KHTML, like Gecko) Chrome/86.0.4240.198 Safari/537.36" etag="7t2AouBy7U0ec9vqBoZI" version="13.10.0" type="github">
  <diagram name="Page-1" id="9361dd3d-8414-5efd-6122-117bd74ce7a7">
    <mxGraphModel dx="1822" dy="832" grid="1" gridSize="10" guides="1" tooltips="1" connect="1" arrows="1" fold="1" page="0" pageScale="1.5" pageWidth="826" pageHeight="1169" background="#ffffff" math="0" shadow="0">
      <root>
        <mxCell id="0" />
        <mxCell id="1" parent="0" />
        <mxCell id="mQt6qqOViQYC4M6WfHK7-89" value="Actor" style="shape=umlActor;verticalLabelPosition=bottom;verticalAlign=top;html=1;outlineConnect=0;" parent="1" vertex="1">
          <mxGeometry x="-60" y="110" width="30" height="60" as="geometry" />
        </mxCell>
        <mxCell id="mQt6qqOViQYC4M6WfHK7-90" value="：ui" style="rounded=0;whiteSpace=wrap;html=1;" parent="1" vertex="1">
          <mxGeometry x="80" y="110" width="100" height="40" as="geometry" />
        </mxCell>
        <mxCell id="mQt6qqOViQYC4M6WfHK7-91" value="：servlt" style="rounded=0;whiteSpace=wrap;html=1;" parent="1" vertex="1">
          <mxGeometry x="350" y="110" width="100" height="45" as="geometry" />
        </mxCell>
        <mxCell id="mQt6qqOViQYC4M6WfHK7-92" value="：student" style="rounded=0;whiteSpace=wrap;html=1;" parent="1" vertex="1">
          <mxGeometry x="555" y="110" width="100" height="40" as="geometry" />
        </mxCell>
        <mxCell id="mQt6qqOViQYC4M6WfHK7-93" value="：dao" style="rounded=0;whiteSpace=wrap;html=1;" parent="1" vertex="1">
          <mxGeometry x="810" y="112.5" width="100" height="40" as="geometry" />
        </mxCell>
        <mxCell id="mQt6qqOViQYC4M6WfHK7-94" value="" style="endArrow=none;dashed=1;html=1;dashPattern=1 3;strokeWidth=2;" parent="1" edge="1">
          <mxGeometry width="50" height="50" relative="1" as="geometry">
            <mxPoint x="-40" y="790" as="sourcePoint" />
            <mxPoint x="-40" y="190" as="targetPoint" />
          </mxGeometry>
        </mxCell>
        <mxCell id="mQt6qqOViQYC4M6WfHK7-96" value="" style="endArrow=none;dashed=1;html=1;dashPattern=1 3;strokeWidth=2;entryX=0.442;entryY=1.05;entryDx=0;entryDy=0;entryPerimeter=0;" parent="1" source="mQt6qqOViQYC4M6WfHK7-123" target="mQt6qqOViQYC4M6WfHK7-90" edge="1">
          <mxGeometry width="50" height="50" relative="1" as="geometry">
            <mxPoint x="120" y="790" as="sourcePoint" />
            <mxPoint x="520" y="390" as="targetPoint" />
          </mxGeometry>
        </mxCell>
        <mxCell id="mQt6qqOViQYC4M6WfHK7-97" value="" style="endArrow=none;dashed=1;html=1;dashPattern=1 3;strokeWidth=2;entryX=0.5;entryY=1;entryDx=0;entryDy=0;" parent="1" source="mQt6qqOViQYC4M6WfHK7-126" target="mQt6qqOViQYC4M6WfHK7-91" edge="1">
          <mxGeometry width="50" height="50" relative="1" as="geometry">
            <mxPoint x="400" y="790" as="sourcePoint" />
            <mxPoint x="520" y="390" as="targetPoint" />
          </mxGeometry>
        </mxCell>
        <mxCell id="mQt6qqOViQYC4M6WfHK7-98" value="" style="endArrow=none;dashed=1;html=1;dashPattern=1 3;strokeWidth=2;entryX=0.5;entryY=1;entryDx=0;entryDy=0;" parent="1" source="mQt6qqOViQYC4M6WfHK7-128" target="mQt6qqOViQYC4M6WfHK7-92" edge="1">
          <mxGeometry width="50" height="50" relative="1" as="geometry">
            <mxPoint x="600" y="770" as="sourcePoint" />
            <mxPoint x="520" y="390" as="targetPoint" />
          </mxGeometry>
        </mxCell>
        <mxCell id="mQt6qqOViQYC4M6WfHK7-99" value="" style="endArrow=none;dashed=1;html=1;dashPattern=1 3;strokeWidth=2;entryX=0.575;entryY=1.083;entryDx=0;entryDy=0;entryPerimeter=0;" parent="1" target="mQt6qqOViQYC4M6WfHK7-93" edge="1">
          <mxGeometry width="50" height="50" relative="1" as="geometry">
            <mxPoint x="869" y="780" as="sourcePoint" />
            <mxPoint x="520" y="390" as="targetPoint" />
          </mxGeometry>
        </mxCell>
        <mxCell id="mQt6qqOViQYC4M6WfHK7-100" value="" style="endArrow=classic;html=1;" parent="1" edge="1">
          <mxGeometry width="50" height="50" relative="1" as="geometry">
            <mxPoint x="-40" y="240" as="sourcePoint" />
            <mxPoint x="120" y="240" as="targetPoint" />
          </mxGeometry>
        </mxCell>
        <mxCell id="mQt6qqOViQYC4M6WfHK7-101" value="load request(id,pwd)" style="text;html=1;align=center;verticalAlign=middle;resizable=0;points=[];autosize=1;" parent="1" vertex="1">
          <mxGeometry x="-19" y="210" width="120" height="20" as="geometry" />
        </mxCell>
        <mxCell id="mQt6qqOViQYC4M6WfHK7-102" value="" style="endArrow=classic;html=1;" parent="1" edge="1">
          <mxGeometry width="50" height="50" relative="1" as="geometry">
            <mxPoint x="120" y="280" as="sourcePoint" />
            <mxPoint x="400" y="280" as="targetPoint" />
          </mxGeometry>
        </mxCell>
        <mxCell id="mQt6qqOViQYC4M6WfHK7-106" value="" style="endArrow=classic;html=1;" parent="1" edge="1">
          <mxGeometry width="50" height="50" relative="1" as="geometry">
            <mxPoint x="400" y="300" as="sourcePoint" />
            <mxPoint x="600" y="300" as="targetPoint" />
          </mxGeometry>
        </mxCell>
        <mxCell id="mQt6qqOViQYC4M6WfHK7-108" value="student(id,pwd)" style="text;html=1;align=center;verticalAlign=middle;resizable=0;points=[];autosize=1;" parent="1" vertex="1">
          <mxGeometry x="450" y="280" width="100" height="20" as="geometry" />
        </mxCell>
        <mxCell id="mQt6qqOViQYC4M6WfHK7-110" value="" style="endArrow=classic;html=1;dashed=1;" parent="1" edge="1">
          <mxGeometry width="50" height="50" relative="1" as="geometry">
            <mxPoint x="120" y="380" as="sourcePoint" />
            <mxPoint x="-40" y="380" as="targetPoint" />
          </mxGeometry>
        </mxCell>
        <mxCell id="mQt6qqOViQYC4M6WfHK7-112" value="show load success" style="text;html=1;align=center;verticalAlign=middle;resizable=0;points=[];autosize=1;" parent="1" vertex="1">
          <mxGeometry x="-20" y="360" width="120" height="20" as="geometry" />
        </mxCell>
        <mxCell id="mQt6qqOViQYC4M6WfHK7-113" value="" style="endArrow=classic;html=1;" parent="1" edge="1">
          <mxGeometry width="50" height="50" relative="1" as="geometry">
            <mxPoint x="-40" y="490" as="sourcePoint" />
            <mxPoint x="120" y="490" as="targetPoint" />
          </mxGeometry>
        </mxCell>
        <mxCell id="mQt6qqOViQYC4M6WfHK7-114" value="cleck request" style="text;html=1;align=center;verticalAlign=middle;resizable=0;points=[];autosize=1;" parent="1" vertex="1">
          <mxGeometry x="-15" y="470" width="90" height="20" as="geometry" />
        </mxCell>
        <mxCell id="mQt6qqOViQYC4M6WfHK7-117" value="" style="endArrow=classic;html=1;" parent="1" edge="1">
          <mxGeometry width="50" height="50" relative="1" as="geometry">
            <mxPoint x="600" y="570" as="sourcePoint" />
            <mxPoint x="870" y="570" as="targetPoint" />
          </mxGeometry>
        </mxCell>
        <mxCell id="mQt6qqOViQYC4M6WfHK7-119" value="" style="endArrow=classic;html=1;" parent="1" edge="1">
          <mxGeometry width="50" height="50" relative="1" as="geometry">
            <mxPoint x="869" y="610" as="sourcePoint" />
            <mxPoint x="969" y="610" as="targetPoint" />
          </mxGeometry>
        </mxCell>
        <mxCell id="mQt6qqOViQYC4M6WfHK7-120" value="clecklist&lt;br&gt;：List&amp;lt;student&amp;gt;" style="rounded=0;whiteSpace=wrap;html=1;" parent="1" vertex="1">
          <mxGeometry x="970" y="580" width="120" height="60" as="geometry" />
        </mxCell>
        <mxCell id="mQt6qqOViQYC4M6WfHK7-121" value="" style="endArrow=classic;html=1;dashed=1;" parent="1" edge="1">
          <mxGeometry width="50" height="50" relative="1" as="geometry">
            <mxPoint x="120" y="630" as="sourcePoint" />
            <mxPoint x="-40" y="630" as="targetPoint" />
          </mxGeometry>
        </mxCell>
        <mxCell id="mQt6qqOViQYC4M6WfHK7-122" value="show cleck success" style="text;html=1;align=center;verticalAlign=middle;resizable=0;points=[];autosize=1;" parent="1" vertex="1">
          <mxGeometry x="-30" y="600" width="120" height="20" as="geometry" />
        </mxCell>
        <mxCell id="mQt6qqOViQYC4M6WfHK7-123" value="" style="rounded=0;whiteSpace=wrap;html=1;" parent="1" vertex="1">
          <mxGeometry x="120" y="230" width="10" height="160" as="geometry" />
        </mxCell>
        <mxCell id="mQt6qqOViQYC4M6WfHK7-124" value="" style="endArrow=none;dashed=1;html=1;dashPattern=1 3;strokeWidth=2;entryX=0.442;entryY=1.05;entryDx=0;entryDy=0;entryPerimeter=0;" parent="1" target="mQt6qqOViQYC4M6WfHK7-123" edge="1">
          <mxGeometry width="50" height="50" relative="1" as="geometry">
            <mxPoint x="120" y="790" as="sourcePoint" />
            <mxPoint x="123.03999999999996" y="173" as="targetPoint" />
          </mxGeometry>
        </mxCell>
        <mxCell id="mQt6qqOViQYC4M6WfHK7-126" value="" style="rounded=0;whiteSpace=wrap;html=1;" parent="1" vertex="1">
          <mxGeometry x="395" y="270" width="10" height="100" as="geometry" />
        </mxCell>
        <mxCell id="mQt6qqOViQYC4M6WfHK7-127" value="" style="endArrow=none;dashed=1;html=1;dashPattern=1 3;strokeWidth=2;entryX=0.5;entryY=1;entryDx=0;entryDy=0;" parent="1" target="mQt6qqOViQYC4M6WfHK7-126" edge="1">
          <mxGeometry width="50" height="50" relative="1" as="geometry">
            <mxPoint x="400" y="790" as="sourcePoint" />
            <mxPoint x="400" y="155" as="targetPoint" />
          </mxGeometry>
        </mxCell>
        <mxCell id="mQt6qqOViQYC4M6WfHK7-128" value="" style="rounded=0;whiteSpace=wrap;html=1;" parent="1" vertex="1">
          <mxGeometry x="600" y="290" width="10" height="80" as="geometry" />
        </mxCell>
        <mxCell id="mQt6qqOViQYC4M6WfHK7-129" value="" style="endArrow=none;dashed=1;html=1;dashPattern=1 3;strokeWidth=2;entryX=0.5;entryY=1;entryDx=0;entryDy=0;" parent="1" target="mQt6qqOViQYC4M6WfHK7-128" edge="1">
          <mxGeometry width="50" height="50" relative="1" as="geometry">
            <mxPoint x="600" y="770" as="sourcePoint" />
            <mxPoint x="600" y="170" as="targetPoint" />
          </mxGeometry>
        </mxCell>
        <mxCell id="mQt6qqOViQYC4M6WfHK7-130" value="" style="rounded=0;whiteSpace=wrap;html=1;" parent="1" vertex="1">
          <mxGeometry x="120" y="480" width="10" height="160" as="geometry" />
        </mxCell>
        <mxCell id="mQt6qqOViQYC4M6WfHK7-131" value="" style="rounded=0;whiteSpace=wrap;html=1;" parent="1" vertex="1">
          <mxGeometry x="600" y="490" width="10" height="150" as="geometry" />
        </mxCell>
        <mxCell id="mQt6qqOViQYC4M6WfHK7-132" value="" style="rounded=0;whiteSpace=wrap;html=1;" parent="1" vertex="1">
          <mxGeometry x="870" y="550" width="10" height="80" as="geometry" />
        </mxCell>
        <mxCell id="sYo3G2CRYCBXgcYGtEB9-1" value="vaildata(id,pwd)" style="text;html=1;align=center;verticalAlign=middle;resizable=0;points=[];autosize=1;" vertex="1" parent="1">
          <mxGeometry x="190" y="260" width="100" height="20" as="geometry" />
        </mxCell>
        <mxCell id="sYo3G2CRYCBXgcYGtEB9-2" value="" style="endArrow=classic;html=1;exitX=1;exitY=0.75;exitDx=0;exitDy=0;" edge="1" parent="1" source="mQt6qqOViQYC4M6WfHK7-126">
          <mxGeometry width="50" height="50" relative="1" as="geometry">
            <mxPoint x="510" y="500" as="sourcePoint" />
            <mxPoint x="870" y="345" as="targetPoint" />
          </mxGeometry>
        </mxCell>
        <mxCell id="sYo3G2CRYCBXgcYGtEB9-3" value="vaildata（student）" style="text;html=1;align=center;verticalAlign=middle;resizable=0;points=[];autosize=1;" vertex="1" parent="1">
          <mxGeometry x="480" y="330" width="120" height="20" as="geometry" />
        </mxCell>
        <mxCell id="sYo3G2CRYCBXgcYGtEB9-4" value="" style="rounded=0;whiteSpace=wrap;html=1;" vertex="1" parent="1">
          <mxGeometry x="860" y="320" width="10" height="60" as="geometry" />
        </mxCell>
        <mxCell id="sYo3G2CRYCBXgcYGtEB9-5" value="" style="rounded=0;whiteSpace=wrap;html=1;" vertex="1" parent="1">
          <mxGeometry x="390" y="490" width="10" height="140" as="geometry" />
        </mxCell>
        <mxCell id="sYo3G2CRYCBXgcYGtEB9-6" value="" style="endArrow=classic;html=1;exitX=1;exitY=0.25;exitDx=0;exitDy=0;entryX=-0.2;entryY=0.193;entryDx=0;entryDy=0;entryPerimeter=0;" edge="1" parent="1" source="mQt6qqOViQYC4M6WfHK7-130" target="sYo3G2CRYCBXgcYGtEB9-5">
          <mxGeometry width="50" height="50" relative="1" as="geometry">
            <mxPoint x="510" y="500" as="sourcePoint" />
            <mxPoint x="560" y="450" as="targetPoint" />
          </mxGeometry>
        </mxCell>
        <mxCell id="sYo3G2CRYCBXgcYGtEB9-7" value="vaildata（）" style="text;html=1;align=center;verticalAlign=middle;resizable=0;points=[];autosize=1;" vertex="1" parent="1">
          <mxGeometry x="210" y="490" width="80" height="20" as="geometry" />
        </mxCell>
        <mxCell id="sYo3G2CRYCBXgcYGtEB9-8" value="" style="endArrow=classic;html=1;exitX=1;exitY=0.371;exitDx=0;exitDy=0;exitPerimeter=0;entryX=-0.2;entryY=0.34;entryDx=0;entryDy=0;entryPerimeter=0;" edge="1" parent="1" source="sYo3G2CRYCBXgcYGtEB9-5" target="mQt6qqOViQYC4M6WfHK7-131">
          <mxGeometry width="50" height="50" relative="1" as="geometry">
            <mxPoint x="510" y="500" as="sourcePoint" />
            <mxPoint x="560" y="450" as="targetPoint" />
          </mxGeometry>
        </mxCell>
        <mxCell id="sYo3G2CRYCBXgcYGtEB9-9" value="creat（）" style="text;html=1;align=center;verticalAlign=middle;resizable=0;points=[];autosize=1;" vertex="1" parent="1">
          <mxGeometry x="465" y="510" width="70" height="20" as="geometry" />
        </mxCell>
        <mxCell id="sYo3G2CRYCBXgcYGtEB9-10" value="cleck（student）" style="text;html=1;align=center;verticalAlign=middle;resizable=0;points=[];autosize=1;" vertex="1" parent="1">
          <mxGeometry x="685" y="540" width="110" height="20" as="geometry" />
        </mxCell>
      </root>
    </mxGraphModel>
  </diagram>
</mxfile>
